# xmcd CD database file
#
# Track frame offsets:
#	150
#	13950
#	25875
#	39450
#	54525
#	66300
#	78825
#	92475
#	104025
#	118575
#	132975
#	148125
#	163875
#	178875
#
# Disc length: 2569 seconds
#
# Revision: 1
# Processed by: cddbd v1.5.1PL0 Copyright (c) Steve Scherf et al.
# Submitted via: freeDBTagger 0.5
#
DISCID=ca0a070e
DTITLE=いしだあゆみ - ENCORE!! HIT GRAFFITI
DYEAR=1900
DGENRE=blues
TTITLE0=ブルー・ライト・ヨコハマ
TTITLE1=喧嘩のあとでくちづけを
TTITLE2=あなたならどうする
TTITLE3=何があなたをそうさせた
TTITLE4=止めないで
TTITLE5=砂漠のような東京で
TTITLE6=おもいでの長崎
TTITLE7=さすらいの天使
TTITLE8=愛愁
TTITLE9=幸せだったはありがとう
TTITLE10=恋は初恋
TTITLE11=美しい別れ
TTITLE12=家路
TTITLE13=渚にて
EXTD=
EXTT0=
EXTT1=
EXTT2=
EXTT3=
EXTT4=
EXTT5=
EXTT6=
EXTT7=
EXTT8=
EXTT9=
EXTT10=
EXTT11=
EXTT12=
EXTT13=
PLAYORDER=
